<svg width="640" height="285" viewBox="0 0 640 285" fill="none" xmlns="http://www.w3.org/2000/svg">
<path d="M160 275.429V281.143C160 281.901 159.649 282.627 159.024 283.163C158.399 283.699 157.551 284 156.667 284H120L140 264L120 244H156.667C157.551 244 158.399 244.301 159.024 244.837C159.649 245.373 160 246.099 160 246.857V252.571" stroke="#737370" stroke-width="2" stroke-linecap="round" stroke-linejoin="round"/>
<rect x="160.5" y="0.5" width="39" height="39" stroke="#737370"/>
<rect x="200.5" y="0.5" width="39" height="39" stroke="#737370"/>
<rect x="240.5" y="0.5" width="39" height="39" stroke="#737370"/>
<rect x="280.5" y="0.5" width="39" height="39" stroke="#737370"/>
<rect x="0.5" y="0.5" width="39" height="39" stroke="#737370"/>
<rect x="40.5" y="0.5" width="39" height="39" stroke="#737370"/>
<rect x="80.5" y="0.5" width="39" height="39" stroke="#737370"/>
<rect x="120.5" y="0.5" width="39" height="39" stroke="#737370"/>
<rect x="480.5" y="0.5" width="39" height="39" stroke="#737370"/>
<rect x="520.5" y="0.5" width="39" height="39" stroke="#737370"/>
<rect x="560.5" y="0.5" width="39" height="39" stroke="#737370"/>
<rect x="600.5" y="0.5" width="39" height="39" stroke="#737370"/>
<rect x="320.5" y="0.5" width="39" height="39" stroke="#737370"/>
<rect x="360.5" y="0.5" width="39" height="39" stroke="#737370"/>
<rect x="400.5" y="0.5" width="39" height="39" stroke="#737370"/>
<rect x="440.5" y="0.5" width="39" height="39" stroke="#737370"/>
<path d="M12.1231 26.5256V24.3523L21.7112 9.18182H23.2879V12.5483H22.2226L14.9782 24.0114V24.1818H27.8902V26.5256H12.1231ZM22.393 31V25.8651V24.853V9.18182H24.9072V31H22.393Z" fill="#006CA9"/>
<path d="M382.956 9.18182V31H380.314V11.9517H380.186L374.86 15.4886V12.804L380.314 9.18182H382.956Z" fill="#006CA9"/>
<path d="M342.956 9.18182V31H340.314V11.9517H340.186L334.86 15.4886V12.804L340.314 9.18182H342.956Z" fill="#006CA9"/>
<path d="M294.371 31L304.13 11.696V11.5256H292.88V9.18182H306.857V11.6534L297.141 31H294.371Z" fill="#006CA9"/>
<path d="M459.951 31.2983C458.701 31.2983 457.575 31.0497 456.574 30.5526C455.572 30.0554 454.77 29.3736 454.166 28.5071C453.562 27.6406 453.232 26.6534 453.175 25.5455H455.732C455.831 26.5327 456.279 27.3494 457.074 27.9957C457.877 28.6349 458.836 28.9545 459.951 28.9545C460.846 28.9545 461.641 28.745 462.337 28.326C463.04 27.907 463.591 27.3317 463.988 26.6001C464.393 25.8615 464.596 25.027 464.596 24.0966C464.596 23.1449 464.386 22.2962 463.967 21.5504C463.555 20.7976 462.987 20.2045 462.263 19.7713C461.538 19.3381 460.711 19.1179 459.78 19.1108C459.113 19.1037 458.427 19.2067 457.724 19.4197C457.021 19.6257 456.442 19.892 455.988 20.2188L453.516 19.9205L454.837 9.18182H466.172V11.5256H457.053L456.286 17.9602H456.414C456.861 17.6051 457.422 17.3104 458.097 17.076C458.772 16.8416 459.475 16.7244 460.206 16.7244C461.542 16.7244 462.731 17.044 463.775 17.6832C464.826 18.3153 465.65 19.1818 466.247 20.2827C466.851 21.3835 467.152 22.6406 467.152 24.054C467.152 25.446 466.84 26.6889 466.215 27.7827C465.597 28.8693 464.745 29.7287 463.658 30.3608C462.571 30.9858 461.336 31.2983 459.951 31.2983Z" fill="#006CA9"/>
<path d="M499.951 31.2983C498.701 31.2983 497.575 31.0497 496.574 30.5526C495.572 30.0554 494.77 29.3736 494.166 28.5071C493.562 27.6406 493.232 26.6534 493.175 25.5455H495.732C495.831 26.5327 496.279 27.3494 497.074 27.9957C497.877 28.6349 498.836 28.9545 499.951 28.9545C500.846 28.9545 501.641 28.745 502.337 28.326C503.04 27.907 503.591 27.3317 503.988 26.6001C504.393 25.8615 504.596 25.027 504.596 24.0966C504.596 23.1449 504.386 22.2962 503.967 21.5504C503.555 20.7976 502.987 20.2045 502.263 19.7713C501.538 19.3381 500.711 19.1179 499.78 19.1108C499.113 19.1037 498.427 19.2067 497.724 19.4197C497.021 19.6257 496.442 19.892 495.988 20.2188L493.516 19.9205L494.837 9.18182H506.172V11.5256H497.053L496.286 17.9602H496.414C496.861 17.6051 497.422 17.3104 498.097 17.076C498.772 16.8416 499.475 16.7244 500.206 16.7244C501.542 16.7244 502.731 17.044 503.775 17.6832C504.826 18.3153 505.65 19.1818 506.247 20.2827C506.851 21.3835 507.152 22.6406 507.152 24.054C507.152 25.446 506.84 26.6889 506.215 27.7827C505.597 28.8693 504.745 29.7287 503.658 30.3608C502.571 30.9858 501.336 31.2983 499.951 31.2983Z" fill="#006CA9"/>
<path d="M414.371 31L424.13 11.696V11.5256H412.88V9.18182H426.857V11.6534L417.141 31H414.371Z" fill="#006CA9"/>
<path d="M252.123 26.5256V24.3523L261.711 9.18182H263.288V12.5483H262.223L254.978 24.0114V24.1818H267.89V26.5256H252.123ZM262.393 31V25.8651V24.853V9.18182H264.907V31H262.393Z" fill="#006CA9"/>
<path d="M612.123 26.5256V24.3523L621.711 9.18182H623.288V12.5483H622.223L614.978 24.0114V24.1818H627.89V26.5256H612.123ZM622.393 31V25.8651V24.853V9.18182H624.907V31H622.393Z" fill="#006CA9"/>
<path d="M219.844 8.88352C220.739 8.89062 221.634 9.06108 222.529 9.39489C223.424 9.72869 224.241 10.2827 224.979 11.0568C225.718 11.8239 226.311 12.8714 226.758 14.1996C227.206 15.5277 227.429 17.1932 227.429 19.196C227.429 21.1349 227.245 22.8572 226.875 24.3629C226.513 25.8615 225.988 27.1257 225.299 28.1555C224.617 29.1854 223.786 29.9666 222.806 30.4993C221.833 31.032 220.732 31.2983 219.503 31.2983C218.282 31.2983 217.191 31.0568 216.233 30.5739C215.281 30.0838 214.5 29.4055 213.889 28.5391C213.285 27.6655 212.898 26.6534 212.728 25.5028H215.327C215.562 26.5043 216.027 27.3317 216.723 27.9851C217.426 28.6314 218.353 28.9545 219.503 28.9545C221.187 28.9545 222.515 28.2195 223.488 26.7493C224.468 25.2791 224.958 23.2017 224.958 20.517H224.787C224.39 21.1136 223.917 21.6286 223.37 22.0618C222.824 22.495 222.216 22.8288 221.549 23.0632C220.881 23.2976 220.171 23.4148 219.418 23.4148C218.168 23.4148 217.021 23.1058 215.977 22.4879C214.94 21.8629 214.109 21.0071 213.484 19.9205C212.866 18.8267 212.557 17.5767 212.557 16.1705C212.557 14.8352 212.856 13.6136 213.452 12.5057C214.056 11.3906 214.901 10.5028 215.988 9.84233C217.081 9.18182 218.367 8.86222 219.844 8.88352ZM219.844 11.2273C218.949 11.2273 218.143 11.451 217.426 11.8984C216.716 12.3388 216.151 12.9354 215.732 13.6882C215.32 14.4339 215.114 15.2614 215.114 16.1705C215.114 17.0795 215.313 17.907 215.711 18.6527C216.116 19.3913 216.666 19.9808 217.362 20.4212C218.065 20.8544 218.864 21.071 219.759 21.071C220.434 21.071 221.062 20.9396 221.645 20.6768C222.227 20.407 222.735 20.0412 223.168 19.5795C223.608 19.1108 223.953 18.5817 224.201 17.9922C224.45 17.3956 224.574 16.7741 224.574 16.1278C224.574 15.2756 224.368 14.4766 223.956 13.7308C223.552 12.9851 222.991 12.3814 222.273 11.9197C221.563 11.4581 220.753 11.2273 219.844 11.2273Z" fill="#006CA9"/>
<path d="M580 31.2983C578.395 31.2983 577.028 30.8615 575.898 29.9879C574.769 29.1072 573.906 27.8324 573.31 26.1634C572.713 24.4872 572.415 22.4631 572.415 20.0909C572.415 17.733 572.713 15.7195 573.31 14.0504C573.913 12.3743 574.78 11.0959 575.909 10.2152C577.045 9.32741 578.409 8.88352 580 8.88352C581.591 8.88352 582.951 9.32741 584.08 10.2152C585.217 11.0959 586.083 12.3743 586.68 14.0504C587.283 15.7195 587.585 17.733 587.585 20.0909C587.585 22.4631 587.287 24.4872 586.69 26.1634C586.094 27.8324 585.231 29.1072 584.102 29.9879C582.972 30.8615 581.605 31.2983 580 31.2983ZM580 28.9545C581.591 28.9545 582.827 28.1875 583.707 26.6534C584.588 25.1193 585.028 22.9318 585.028 20.0909C585.028 18.2017 584.826 16.593 584.421 15.2649C584.023 13.9368 583.448 12.9247 582.695 12.2287C581.95 11.5327 581.051 11.1847 580 11.1847C578.423 11.1847 577.191 11.9624 576.303 13.5178C575.415 15.0661 574.972 17.2571 574.972 20.0909C574.972 21.9801 575.17 23.5852 575.568 24.9062C575.966 26.2273 576.538 27.2322 577.283 27.9212C578.036 28.6101 578.942 28.9545 580 28.9545Z" fill="#006CA9"/>
<path d="M539.844 8.88352C540.739 8.89062 541.634 9.06108 542.529 9.39489C543.424 9.72869 544.241 10.2827 544.979 11.0568C545.718 11.8239 546.311 12.8714 546.758 14.1996C547.206 15.5277 547.429 17.1932 547.429 19.196C547.429 21.1349 547.245 22.8572 546.875 24.3629C546.513 25.8615 545.988 27.1257 545.299 28.1555C544.617 29.1854 543.786 29.9666 542.806 30.4993C541.833 31.032 540.732 31.2983 539.503 31.2983C538.282 31.2983 537.191 31.0568 536.233 30.5739C535.281 30.0838 534.5 29.4055 533.889 28.5391C533.285 27.6655 532.898 26.6534 532.728 25.5028H535.327C535.562 26.5043 536.027 27.3317 536.723 27.9851C537.426 28.6314 538.353 28.9545 539.503 28.9545C541.187 28.9545 542.515 28.2195 543.488 26.7493C544.468 25.2791 544.958 23.2017 544.958 20.517H544.787C544.39 21.1136 543.917 21.6286 543.37 22.0618C542.824 22.495 542.216 22.8288 541.549 23.0632C540.881 23.2976 540.171 23.4148 539.418 23.4148C538.168 23.4148 537.021 23.1058 535.977 22.4879C534.94 21.8629 534.109 21.0071 533.484 19.9205C532.866 18.8267 532.557 17.5767 532.557 16.1705C532.557 14.8352 532.856 13.6136 533.452 12.5057C534.056 11.3906 534.901 10.5028 535.988 9.84233C537.081 9.18182 538.367 8.86222 539.844 8.88352ZM539.844 11.2273C538.949 11.2273 538.143 11.451 537.426 11.8984C536.716 12.3388 536.151 12.9354 535.732 13.6882C535.32 14.4339 535.114 15.2614 535.114 16.1705C535.114 17.0795 535.313 17.907 535.711 18.6527C536.116 19.3913 536.666 19.9808 537.362 20.4212C538.065 20.8544 538.864 21.071 539.759 21.071C540.434 21.071 541.062 20.9396 541.645 20.6768C542.227 20.407 542.735 20.0412 543.168 19.5795C543.608 19.1108 543.953 18.5817 544.201 17.9922C544.45 17.3956 544.574 16.7741 544.574 16.1278C544.574 15.2756 544.368 14.4766 543.956 13.7308C543.552 12.9851 542.991 12.3814 542.273 11.9197C541.563 11.4581 540.753 11.2273 539.844 11.2273Z" fill="#006CA9"/>
<path d="M180.004 31.2983C178.541 31.2983 177.248 31.0391 176.126 30.5206C175.011 29.995 174.141 29.2741 173.516 28.358C172.891 27.4347 172.582 26.3835 172.589 25.2045C172.582 24.2812 172.763 23.429 173.133 22.6477C173.502 21.8594 174.006 21.2024 174.645 20.6768C175.292 20.1442 176.013 19.8068 176.808 19.6648V19.5369C175.764 19.267 174.933 18.6811 174.315 17.7791C173.697 16.87 173.392 15.8366 173.399 14.679C173.392 13.571 173.672 12.5803 174.241 11.7067C174.809 10.8331 175.59 10.1442 176.584 9.63991C177.586 9.13565 178.726 8.88352 180.004 8.88352C181.268 8.88352 182.397 9.13565 183.392 9.63991C184.386 10.1442 185.167 10.8331 185.736 11.7067C186.311 12.5803 186.602 13.571 186.609 14.679C186.602 15.8366 186.286 16.87 185.661 17.7791C185.043 18.6811 184.223 19.267 183.2 19.5369V19.6648C183.988 19.8068 184.699 20.1442 185.331 20.6768C185.963 21.2024 186.467 21.8594 186.843 22.6477C187.22 23.429 187.412 24.2812 187.419 25.2045C187.412 26.3835 187.092 27.4347 186.46 28.358C185.835 29.2741 184.965 29.995 183.85 30.5206C182.742 31.0391 181.46 31.2983 180.004 31.2983ZM180.004 28.9545C180.991 28.9545 181.843 28.7947 182.561 28.4751C183.278 28.1555 183.832 27.7045 184.223 27.1222C184.613 26.5398 184.812 25.858 184.819 25.0767C184.812 24.2528 184.599 23.5249 184.18 22.8928C183.761 22.2607 183.189 21.7635 182.465 21.4013C181.748 21.0391 180.927 20.858 180.004 20.858C179.074 20.858 178.243 21.0391 177.511 21.4013C176.787 21.7635 176.215 22.2607 175.796 22.8928C175.384 23.5249 175.182 24.2528 175.189 25.0767C175.182 25.858 175.37 26.5398 175.753 27.1222C176.144 27.7045 176.701 28.1555 177.426 28.4751C178.15 28.7947 179.01 28.9545 180.004 28.9545ZM180.004 18.5994C180.785 18.5994 181.478 18.4432 182.081 18.1307C182.692 17.8182 183.172 17.3814 183.52 16.8203C183.868 16.2592 184.045 15.6023 184.052 14.8494C184.045 14.1108 183.871 13.468 183.53 12.9212C183.189 12.3672 182.717 11.9411 182.113 11.6428C181.51 11.3374 180.807 11.1847 180.004 11.1847C179.187 11.1847 178.473 11.3374 177.863 11.6428C177.252 11.9411 176.78 12.3672 176.446 12.9212C176.112 13.468 175.949 14.1108 175.956 14.8494C175.949 15.6023 176.116 16.2592 176.456 16.8203C176.804 17.3814 177.284 17.8182 177.895 18.1307C178.505 18.4432 179.209 18.5994 180.004 18.5994Z" fill="#006CA9"/>
<path d="M134.371 31L144.13 11.696V11.5256H132.88V9.18182H146.857V11.6534L137.141 31H134.371Z" fill="#006CA9"/>
<path d="M100.08 31.2983C98.6737 31.2983 97.4201 31.0568 96.3192 30.5739C95.2255 30.0909 94.3555 29.4197 93.7092 28.5604C93.07 27.6939 92.7219 26.6889 92.6651 25.5455H95.3498C95.4066 26.2486 95.6481 26.8558 96.0742 27.3672C96.5004 27.8714 97.0579 28.2621 97.7468 28.5391C98.4357 28.8161 99.1992 28.9545 100.037 28.9545C100.975 28.9545 101.806 28.7912 102.53 28.4645C103.255 28.1378 103.823 27.6832 104.235 27.1009C104.647 26.5185 104.853 25.8438 104.853 25.0767C104.853 24.2741 104.654 23.5675 104.256 22.9567C103.858 22.3388 103.276 21.8558 102.509 21.5078C101.742 21.1598 100.804 20.9858 99.6964 20.9858H97.9492V18.642H99.6964C100.563 18.642 101.323 18.4858 101.976 18.1733C102.637 17.8608 103.152 17.4205 103.521 16.8523C103.897 16.2841 104.086 15.6165 104.086 14.8494C104.086 14.1108 103.922 13.468 103.596 12.9212C103.269 12.3743 102.807 11.9482 102.211 11.6428C101.621 11.3374 100.925 11.1847 100.123 11.1847C99.3697 11.1847 98.6594 11.3232 97.9918 11.6001C97.3313 11.87 96.7915 12.2642 96.3725 12.7827C95.9535 13.294 95.7262 13.9119 95.6907 14.6364H93.1339C93.1765 13.4929 93.521 12.4915 94.1673 11.6321C94.8136 10.7656 95.6587 10.0909 96.7028 9.60795C97.7539 9.125 98.908 8.88352 100.165 8.88352C101.515 8.88352 102.672 9.15696 103.638 9.70383C104.604 10.2436 105.346 10.9574 105.865 11.8452C106.383 12.733 106.642 13.6918 106.642 14.7216C106.642 15.9503 106.319 16.9979 105.673 17.8643C105.034 18.7308 104.164 19.331 103.063 19.6648V19.8352C104.441 20.0625 105.517 20.6484 106.291 21.593C107.065 22.5305 107.452 23.6918 107.452 25.0767C107.452 26.2628 107.129 27.3281 106.483 28.2727C105.843 29.2102 104.97 29.9489 103.862 30.4886C102.754 31.0284 101.493 31.2983 100.08 31.2983Z" fill="#006CA9"/>
<path d="M62.9563 9.18182V31H60.3143V11.9517H60.1864L54.8597 15.4886V12.804L60.3143 9.18182H62.9563Z" fill="#006CA9"/>
<rect x="160.5" y="83.5" width="39" height="39" stroke="#737370"/>
<rect x="200.5" y="83.5" width="39" height="39" stroke="#737370"/>
<rect x="240.5" y="83.5" width="39" height="39" stroke="#737370"/>
<rect x="280.5" y="83.5" width="39" height="39" stroke="#737370"/>
<rect x="0.5" y="83.5" width="39" height="39" stroke="#737370"/>
<rect x="40.5" y="83.5" width="39" height="39" stroke="#737370"/>
<rect x="80.5" y="83.5" width="39" height="39" stroke="#737370"/>
<rect x="120.5" y="83.5" width="39" height="39" stroke="#737370"/>
<rect x="480.5" y="83.5" width="39" height="39" stroke="#737370"/>
<rect x="520.5" y="83.5" width="39" height="39" stroke="#737370"/>
<rect x="560.5" y="83.5" width="39" height="39" stroke="#737370"/>
<rect x="600.5" y="83.5" width="39" height="39" stroke="#737370"/>
<rect x="320.5" y="83.5" width="39" height="39" stroke="#737370"/>
<rect x="360.5" y="83.5" width="39" height="39" stroke="#737370"/>
<rect x="400.5" y="83.5" width="39" height="39" stroke="#737370"/>
<rect x="440.5" y="83.5" width="39" height="39" stroke="#737370"/>
<path d="M20.004 114.298C18.5409 114.298 17.2483 114.039 16.1262 113.521C15.0111 112.995 14.1411 112.274 13.5161 111.358C12.8911 110.435 12.5821 109.384 12.5892 108.205C12.5821 107.281 12.7632 106.429 13.1325 105.648C13.5019 104.859 14.0061 104.202 14.6453 103.677C15.2916 103.144 16.0125 102.807 16.808 102.665V102.537C15.7639 102.267 14.933 101.681 14.3151 100.779C13.6972 99.87 13.3918 98.8366 13.3989 97.679C13.3918 96.571 13.6723 95.5803 14.2405 94.7067C14.8087 93.8331 15.5899 93.1442 16.5843 92.6399C17.5857 92.1357 18.7256 91.8835 20.004 91.8835C21.2682 91.8835 22.3975 92.1357 23.3918 92.6399C24.3861 93.1442 25.1673 93.8331 25.7355 94.7067C26.3108 95.5803 26.602 96.571 26.6091 97.679C26.602 98.8366 26.286 99.87 25.661 100.779C25.0431 101.681 24.2227 102.267 23.2 102.537V102.665C23.9884 102.807 24.6986 103.144 25.3307 103.677C25.9628 104.202 26.4671 104.859 26.8435 105.648C27.2199 106.429 27.4117 107.281 27.4188 108.205C27.4117 109.384 27.0921 110.435 26.46 111.358C25.835 112.274 24.9649 112.995 23.8499 113.521C22.7419 114.039 21.46 114.298 20.004 114.298ZM20.004 111.955C20.9912 111.955 21.8435 111.795 22.5608 111.475C23.2781 111.156 23.8321 110.705 24.2227 110.122C24.6134 109.54 24.8122 108.858 24.8193 108.077C24.8122 107.253 24.5992 106.525 24.1801 105.893C23.7611 105.261 23.1894 104.763 22.4649 104.401C21.7476 104.039 20.9273 103.858 20.004 103.858C19.0736 103.858 18.2426 104.039 17.5111 104.401C16.7867 104.763 16.2149 105.261 15.7959 105.893C15.384 106.525 15.1816 107.253 15.1887 108.077C15.1816 108.858 15.3698 109.54 15.7533 110.122C16.1439 110.705 16.7014 111.156 17.4259 111.475C18.1503 111.795 19.0097 111.955 20.004 111.955ZM20.004 101.599C20.7852 101.599 21.4777 101.443 22.0814 101.131C22.6922 100.818 23.1716 100.381 23.5196 99.8203C23.8676 99.2592 24.0452 98.6023 24.0523 97.8494C24.0452 97.1108 23.8712 96.468 23.5303 95.9212C23.1894 95.3672 22.7171 94.9411 22.1134 94.6428C21.5097 94.3374 20.8066 94.1847 20.004 94.1847C19.1872 94.1847 18.4735 94.3374 17.8627 94.6428C17.2519 94.9411 16.7796 95.3672 16.4458 95.9212C16.1119 96.468 15.9486 97.1108 15.9557 97.8494C15.9486 98.6023 16.1155 99.2592 16.4564 99.8203C16.8044 100.381 17.2838 100.818 17.8946 101.131C18.5054 101.443 19.2085 101.599 20.004 101.599Z" fill="#737370"/>
<path d="M382.956 92.1818V114H380.314V94.9517H380.186L374.86 98.4886V95.804L380.314 92.1818H382.956Z" fill="#737370"/>
<path d="M333.176 114V112.082L340.378 104.199C341.223 103.276 341.919 102.473 342.466 101.791C343.013 101.102 343.418 100.456 343.681 99.8523C343.951 99.2415 344.086 98.6023 344.086 97.9347C344.086 97.1676 343.901 96.5036 343.532 95.9425C343.169 95.3814 342.672 94.9482 342.04 94.6428C341.408 94.3374 340.698 94.1847 339.909 94.1847C339.071 94.1847 338.34 94.3587 337.715 94.7067C337.097 95.0476 336.618 95.527 336.277 96.1449C335.943 96.7628 335.776 97.4872 335.776 98.3182H333.262C333.262 97.0398 333.556 95.9176 334.146 94.9517C334.735 93.9858 335.538 93.233 336.554 92.6932C337.576 92.1534 338.723 91.8835 339.995 91.8835C341.273 91.8835 342.406 92.1534 343.393 92.6932C344.38 93.233 345.154 93.9609 345.716 94.8771C346.277 95.7933 346.557 96.8125 346.557 97.9347C346.557 98.7372 346.412 99.522 346.12 100.289C345.836 101.049 345.339 101.898 344.629 102.835C343.926 103.766 342.949 104.902 341.699 106.244L336.799 111.486V111.656H346.941V114H333.176Z" fill="#737370"/>
<path d="M294.371 114L304.13 94.696V94.5256H292.88V92.1818H306.857V94.6534L297.141 114H294.371Z" fill="#737370"/>
<path d="M459.951 114.298C458.701 114.298 457.575 114.05 456.574 113.553C455.572 113.055 454.77 112.374 454.166 111.507C453.562 110.641 453.232 109.653 453.175 108.545H455.732C455.831 109.533 456.279 110.349 457.074 110.996C457.877 111.635 458.836 111.955 459.951 111.955C460.846 111.955 461.641 111.745 462.337 111.326C463.04 110.907 463.591 110.332 463.988 109.6C464.393 108.862 464.596 108.027 464.596 107.097C464.596 106.145 464.386 105.296 463.967 104.55C463.555 103.798 462.987 103.205 462.263 102.771C461.538 102.338 460.711 102.118 459.78 102.111C459.113 102.104 458.427 102.207 457.724 102.42C457.021 102.626 456.442 102.892 455.988 103.219L453.516 102.92L454.837 92.1818H466.172V94.5256H457.053L456.286 100.96H456.414C456.861 100.605 457.422 100.31 458.097 100.076C458.772 99.8416 459.475 99.7244 460.206 99.7244C461.542 99.7244 462.731 100.044 463.775 100.683C464.826 101.315 465.65 102.182 466.247 103.283C466.851 104.384 467.152 105.641 467.152 107.054C467.152 108.446 466.84 109.689 466.215 110.783C465.597 111.869 464.745 112.729 463.658 113.361C462.571 113.986 461.336 114.298 459.951 114.298Z" fill="#737370"/>
<path d="M493.581 92.1818V114H490.939V94.9517H490.811L485.485 98.4886V95.804L490.939 92.1818H493.581ZM506.973 114.298C505.368 114.298 504 113.862 502.871 112.988C501.742 112.107 500.879 110.832 500.282 109.163C499.686 107.487 499.387 105.463 499.387 103.091C499.387 100.733 499.686 98.7195 500.282 97.0504C500.886 95.3743 501.752 94.0959 502.882 93.2152C504.018 92.3274 505.382 91.8835 506.973 91.8835C508.564 91.8835 509.924 92.3274 511.053 93.2152C512.189 94.0959 513.056 95.3743 513.652 97.0504C514.256 98.7195 514.558 100.733 514.558 103.091C514.558 105.463 514.26 107.487 513.663 109.163C513.066 110.832 512.203 112.107 511.074 112.988C509.945 113.862 508.578 114.298 506.973 114.298ZM506.973 111.955C508.564 111.955 509.799 111.187 510.68 109.653C511.561 108.119 512.001 105.932 512.001 103.091C512.001 101.202 511.799 99.593 511.394 98.2649C510.996 96.9368 510.421 95.9247 509.668 95.2287C508.922 94.5327 508.024 94.1847 506.973 94.1847C505.396 94.1847 504.164 94.9624 503.276 96.5178C502.388 98.0661 501.944 100.257 501.944 103.091C501.944 104.98 502.143 106.585 502.541 107.906C502.939 109.227 503.51 110.232 504.256 110.921C505.009 111.61 505.914 111.955 506.973 111.955Z" fill="#737370"/>
<path d="M413.332 92.1818V114H410.69V94.9517H410.562L405.236 98.4886V95.804L410.69 92.1818H413.332ZM419.096 109.526V107.352L428.684 92.1818H430.261V95.5483H429.195L421.951 107.011V107.182H434.863V109.526H419.096ZM429.366 114V108.865V107.853V92.1818H431.88V114H429.366Z" fill="#737370"/>
<path d="M260.004 114.298C258.541 114.298 257.248 114.039 256.126 113.521C255.011 112.995 254.141 112.274 253.516 111.358C252.891 110.435 252.582 109.384 252.589 108.205C252.582 107.281 252.763 106.429 253.133 105.648C253.502 104.859 254.006 104.202 254.645 103.677C255.292 103.144 256.013 102.807 256.808 102.665V102.537C255.764 102.267 254.933 101.681 254.315 100.779C253.697 99.87 253.392 98.8366 253.399 97.679C253.392 96.571 253.672 95.5803 254.241 94.7067C254.809 93.8331 255.59 93.1442 256.584 92.6399C257.586 92.1357 258.726 91.8835 260.004 91.8835C261.268 91.8835 262.397 92.1357 263.392 92.6399C264.386 93.1442 265.167 93.8331 265.736 94.7067C266.311 95.5803 266.602 96.571 266.609 97.679C266.602 98.8366 266.286 99.87 265.661 100.779C265.043 101.681 264.223 102.267 263.2 102.537V102.665C263.988 102.807 264.699 103.144 265.331 103.677C265.963 104.202 266.467 104.859 266.843 105.648C267.22 106.429 267.412 107.281 267.419 108.205C267.412 109.384 267.092 110.435 266.46 111.358C265.835 112.274 264.965 112.995 263.85 113.521C262.742 114.039 261.46 114.298 260.004 114.298ZM260.004 111.955C260.991 111.955 261.843 111.795 262.561 111.475C263.278 111.156 263.832 110.705 264.223 110.122C264.613 109.54 264.812 108.858 264.819 108.077C264.812 107.253 264.599 106.525 264.18 105.893C263.761 105.261 263.189 104.763 262.465 104.401C261.748 104.039 260.927 103.858 260.004 103.858C259.074 103.858 258.243 104.039 257.511 104.401C256.787 104.763 256.215 105.261 255.796 105.893C255.384 106.525 255.182 107.253 255.189 108.077C255.182 108.858 255.37 109.54 255.753 110.122C256.144 110.705 256.701 111.156 257.426 111.475C258.15 111.795 259.01 111.955 260.004 111.955ZM260.004 101.599C260.785 101.599 261.478 101.443 262.081 101.131C262.692 100.818 263.172 100.381 263.52 99.8203C263.868 99.2592 264.045 98.6023 264.052 97.8494C264.045 97.1108 263.871 96.468 263.53 95.9212C263.189 95.3672 262.717 94.9411 262.113 94.6428C261.51 94.3374 260.807 94.1847 260.004 94.1847C259.187 94.1847 258.473 94.3374 257.863 94.6428C257.252 94.9411 256.78 95.3672 256.446 95.9212C256.112 96.468 255.949 97.1108 255.956 97.8494C255.949 98.6023 256.116 99.2592 256.456 99.8203C256.804 100.381 257.284 100.818 257.895 101.131C258.505 101.443 259.209 101.599 260.004 101.599Z" fill="#737370"/>
<path d="M612.123 109.526V107.352L621.711 92.1818H623.288V95.5483H622.223L614.978 107.011V107.182H627.89V109.526H612.123ZM622.393 114V108.865V107.853V92.1818H624.907V114H622.393Z" fill="#737370"/>
<path d="M219.844 91.8835C220.739 91.8906 221.634 92.0611 222.529 92.3949C223.424 92.7287 224.241 93.2827 224.979 94.0568C225.718 94.8239 226.311 95.8714 226.758 97.1996C227.206 98.5277 227.429 100.193 227.429 102.196C227.429 104.135 227.245 105.857 226.875 107.363C226.513 108.862 225.988 110.126 225.299 111.156C224.617 112.185 223.786 112.967 222.806 113.499C221.833 114.032 220.732 114.298 219.503 114.298C218.282 114.298 217.191 114.057 216.233 113.574C215.281 113.084 214.5 112.406 213.889 111.539C213.285 110.665 212.898 109.653 212.728 108.503H215.327C215.562 109.504 216.027 110.332 216.723 110.985C217.426 111.631 218.353 111.955 219.503 111.955C221.187 111.955 222.515 111.219 223.488 109.749C224.468 108.279 224.958 106.202 224.958 103.517H224.787C224.39 104.114 223.917 104.629 223.37 105.062C222.824 105.495 222.216 105.829 221.549 106.063C220.881 106.298 220.171 106.415 219.418 106.415C218.168 106.415 217.021 106.106 215.977 105.488C214.94 104.863 214.109 104.007 213.484 102.92C212.866 101.827 212.557 100.577 212.557 99.1705C212.557 97.8352 212.856 96.6136 213.452 95.5057C214.056 94.3906 214.901 93.5028 215.988 92.8423C217.081 92.1818 218.367 91.8622 219.844 91.8835ZM219.844 94.2273C218.949 94.2273 218.143 94.451 217.426 94.8984C216.716 95.3388 216.151 95.9354 215.732 96.6882C215.32 97.4339 215.114 98.2614 215.114 99.1705C215.114 100.08 215.313 100.907 215.711 101.653C216.116 102.391 216.666 102.981 217.362 103.421C218.065 103.854 218.864 104.071 219.759 104.071C220.434 104.071 221.062 103.94 221.645 103.677C222.227 103.407 222.735 103.041 223.168 102.58C223.608 102.111 223.953 101.582 224.201 100.992C224.45 100.396 224.574 99.7741 224.574 99.1278C224.574 98.2756 224.368 97.4766 223.956 96.7308C223.552 95.9851 222.991 95.3814 222.273 94.9197C221.563 94.4581 220.753 94.2273 219.844 94.2273Z" fill="#737370"/>
<path d="M580 114.298C578.395 114.298 577.028 113.862 575.898 112.988C574.769 112.107 573.906 110.832 573.31 109.163C572.713 107.487 572.415 105.463 572.415 103.091C572.415 100.733 572.713 98.7195 573.31 97.0504C573.913 95.3743 574.78 94.0959 575.909 93.2152C577.045 92.3274 578.409 91.8835 580 91.8835C581.591 91.8835 582.951 92.3274 584.08 93.2152C585.217 94.0959 586.083 95.3743 586.68 97.0504C587.283 98.7195 587.585 100.733 587.585 103.091C587.585 105.463 587.287 107.487 586.69 109.163C586.094 110.832 585.231 112.107 584.102 112.988C582.972 113.862 581.605 114.298 580 114.298ZM580 111.955C581.591 111.955 582.827 111.187 583.707 109.653C584.588 108.119 585.028 105.932 585.028 103.091C585.028 101.202 584.826 99.593 584.421 98.2649C584.023 96.9368 583.448 95.9247 582.695 95.2287C581.95 94.5327 581.051 94.1847 580 94.1847C578.423 94.1847 577.191 94.9624 576.303 96.5178C575.415 98.0661 574.972 100.257 574.972 103.091C574.972 104.98 575.17 106.585 575.568 107.906C575.966 109.227 576.538 110.232 577.283 110.921C578.036 111.61 578.942 111.955 580 111.955Z" fill="#737370"/>
<path d="M539.844 91.8835C540.739 91.8906 541.634 92.0611 542.529 92.3949C543.424 92.7287 544.241 93.2827 544.979 94.0568C545.718 94.8239 546.311 95.8714 546.758 97.1996C547.206 98.5277 547.429 100.193 547.429 102.196C547.429 104.135 547.245 105.857 546.875 107.363C546.513 108.862 545.988 110.126 545.299 111.156C544.617 112.185 543.786 112.967 542.806 113.499C541.833 114.032 540.732 114.298 539.503 114.298C538.282 114.298 537.191 114.057 536.233 113.574C535.281 113.084 534.5 112.406 533.889 111.539C533.285 110.665 532.898 109.653 532.728 108.503H535.327C535.562 109.504 536.027 110.332 536.723 110.985C537.426 111.631 538.353 111.955 539.503 111.955C541.187 111.955 542.515 111.219 543.488 109.749C544.468 108.279 544.958 106.202 544.958 103.517H544.787C544.39 104.114 543.917 104.629 543.37 105.062C542.824 105.495 542.216 105.829 541.549 106.063C540.881 106.298 540.171 106.415 539.418 106.415C538.168 106.415 537.021 106.106 535.977 105.488C534.94 104.863 534.109 104.007 533.484 102.92C532.866 101.827 532.557 100.577 532.557 99.1705C532.557 97.8352 532.856 96.6136 533.452 95.5057C534.056 94.3906 534.901 93.5028 535.988 92.8423C537.081 92.1818 538.367 91.8622 539.844 91.8835ZM539.844 94.2273C538.949 94.2273 538.143 94.451 537.426 94.8984C536.716 95.3388 536.151 95.9354 535.732 96.6882C535.32 97.4339 535.114 98.2614 535.114 99.1705C535.114 100.08 535.313 100.907 535.711 101.653C536.116 102.391 536.666 102.981 537.362 103.421C538.065 103.854 538.864 104.071 539.759 104.071C540.434 104.071 541.062 103.94 541.645 103.677C542.227 103.407 542.735 103.041 543.168 102.58C543.608 102.111 543.953 101.582 544.201 100.992C544.45 100.396 544.574 99.7741 544.574 99.1278C544.574 98.2756 544.368 97.4766 543.956 96.7308C543.552 95.9851 542.991 95.3814 542.273 94.9197C541.563 94.4581 540.753 94.2273 539.844 94.2273Z" fill="#737370"/>
<path d="M173.596 92.1818V114H170.954V94.9517H170.826L165.499 98.4886V95.804L170.954 92.1818H173.596ZM187.115 114.298C186.22 114.284 185.325 114.114 184.43 113.787C183.536 113.46 182.719 112.91 181.98 112.136C181.242 111.354 180.649 110.3 180.201 108.972C179.754 107.636 179.53 105.96 179.53 103.943C179.53 102.011 179.711 100.3 180.073 98.8082C180.435 97.3097 180.961 96.049 181.65 95.0263C182.339 93.9964 183.17 93.2152 184.143 92.6825C185.123 92.1499 186.227 91.8835 187.456 91.8835C188.678 91.8835 189.764 92.1286 190.716 92.6186C191.675 93.1016 192.456 93.7763 193.06 94.6428C193.663 95.5092 194.054 96.5071 194.232 97.6364H191.632C191.391 96.6562 190.922 95.843 190.226 95.1967C189.53 94.5504 188.607 94.2273 187.456 94.2273C185.766 94.2273 184.434 94.9624 183.461 96.4325C182.495 97.9027 182.009 99.9659 182.002 102.622H182.172C182.57 102.018 183.042 101.504 183.589 101.077C184.143 100.644 184.754 100.31 185.421 100.076C186.089 99.8416 186.796 99.7244 187.541 99.7244C188.791 99.7244 189.935 100.037 190.972 100.662C192.009 101.28 192.84 102.136 193.465 103.229C194.09 104.316 194.402 105.562 194.402 106.969C194.402 108.318 194.1 109.554 193.497 110.676C192.893 111.791 192.044 112.679 190.95 113.339C189.864 113.993 188.585 114.312 187.115 114.298ZM187.115 111.955C188.01 111.955 188.813 111.731 189.523 111.283C190.24 110.836 190.805 110.236 191.217 109.483C191.636 108.73 191.845 107.892 191.845 106.969C191.845 106.067 191.643 105.246 191.238 104.508C190.84 103.762 190.29 103.169 189.587 102.729C188.891 102.288 188.095 102.068 187.2 102.068C186.526 102.068 185.897 102.203 185.315 102.473C184.732 102.736 184.221 103.098 183.781 103.56C183.347 104.021 183.006 104.55 182.758 105.147C182.509 105.737 182.385 106.358 182.385 107.011C182.385 107.878 182.587 108.687 182.992 109.44C183.404 110.193 183.965 110.8 184.676 111.262C185.393 111.724 186.206 111.955 187.115 111.955Z" fill="#737370"/>
<path d="M134.371 114L144.13 94.696V94.5256H132.88V92.1818H146.857V94.6534L137.141 114H134.371Z" fill="#737370"/>
<path d="M100.142 114.298C99.2476 114.284 98.3527 114.114 97.4578 113.787C96.5629 113.46 95.7462 112.91 95.0075 112.136C94.2689 111.354 93.6759 110.3 93.2284 108.972C92.781 107.636 92.5573 105.96 92.5573 103.943C92.5573 102.011 92.7384 100.3 93.1006 98.8082C93.4628 97.3097 93.9884 96.049 94.6773 95.0263C95.3662 93.9964 96.1972 93.2152 97.1702 92.6825C98.1503 92.1499 99.2547 91.8835 100.483 91.8835C101.705 91.8835 102.792 92.1286 103.743 92.6186C104.702 93.1016 105.483 93.7763 106.087 94.6428C106.691 95.5092 107.081 96.5071 107.259 97.6364H104.66C104.418 96.6562 103.949 95.843 103.253 95.1967C102.557 94.5504 101.634 94.2273 100.483 94.2273C98.7931 94.2273 97.4614 94.9624 96.4884 96.4325C95.5225 97.9027 95.036 99.9659 95.0289 102.622H95.1993C95.597 102.018 96.0693 101.504 96.6162 101.077C97.1702 100.644 97.781 100.31 98.4486 100.076C99.1162 99.8416 99.8229 99.7244 100.569 99.7244C101.819 99.7244 102.962 100.037 103.999 100.662C105.036 101.28 105.867 102.136 106.492 103.229C107.117 104.316 107.429 105.562 107.429 106.969C107.429 108.318 107.128 109.554 106.524 110.676C105.92 111.791 105.071 112.679 103.978 113.339C102.891 113.993 101.613 114.312 100.142 114.298ZM100.142 111.955C101.037 111.955 101.84 111.731 102.55 111.283C103.267 110.836 103.832 110.236 104.244 109.483C104.663 108.73 104.873 107.892 104.873 106.969C104.873 106.067 104.67 105.246 104.265 104.508C103.868 103.762 103.317 103.169 102.614 102.729C101.918 102.288 101.123 102.068 100.228 102.068C99.553 102.068 98.9244 102.203 98.3421 102.473C97.7597 102.736 97.2483 103.098 96.808 103.56C96.3747 104.021 96.0338 104.55 95.7852 105.147C95.5367 105.737 95.4124 106.358 95.4124 107.011C95.4124 107.878 95.6148 108.687 96.0196 109.44C96.4316 110.193 96.9926 110.8 97.7029 111.262C98.4202 111.724 99.2334 111.955 100.142 111.955Z" fill="#737370"/>
<path d="M62.9563 92.1818V114H60.3143V94.9517H60.1864L54.8597 98.4886V95.804L60.3143 92.1818H62.9563Z" fill="#737370"/>
<rect x="160.5" y="161.5" width="39" height="39" stroke="#737370"/>
<rect x="200.5" y="161.5" width="39" height="39" stroke="#737370"/>
<rect x="240.5" y="161.5" width="39" height="39" stroke="#737370"/>
<rect x="280.5" y="161.5" width="39" height="39" stroke="#737370"/>
<rect x="0.5" y="161.5" width="39" height="39" stroke="#737370"/>
<rect x="40.5" y="161.5" width="39" height="39" stroke="#737370"/>
<rect x="80.5" y="161.5" width="39" height="39" stroke="#737370"/>
<rect x="120.5" y="161.5" width="39" height="39" stroke="#737370"/>
<rect x="480.5" y="161.5" width="39" height="39" stroke="#737370"/>
<rect x="520.5" y="161.5" width="39" height="39" stroke="#737370"/>
<rect x="560.5" y="161.5" width="39" height="39" stroke="#737370"/>
<rect x="600.5" y="161.5" width="39" height="39" stroke="#737370"/>
<rect x="320.5" y="161.5" width="39" height="39" stroke="#737370"/>
<rect x="360.5" y="161.5" width="39" height="39" stroke="#737370"/>
<rect x="400.5" y="161.5" width="39" height="39" stroke="#737370"/>
<rect x="440.5" y="161.5" width="39" height="39" stroke="#737370"/>
<path d="M20.004 192.298C18.5409 192.298 17.2483 192.039 16.1262 191.521C15.0111 190.995 14.1411 190.274 13.5161 189.358C12.8911 188.435 12.5821 187.384 12.5892 186.205C12.5821 185.281 12.7632 184.429 13.1325 183.648C13.5019 182.859 14.0061 182.202 14.6453 181.677C15.2916 181.144 16.0125 180.807 16.808 180.665V180.537C15.7639 180.267 14.933 179.681 14.3151 178.779C13.6972 177.87 13.3918 176.837 13.3989 175.679C13.3918 174.571 13.6723 173.58 14.2405 172.707C14.8087 171.833 15.5899 171.144 16.5843 170.64C17.5857 170.136 18.7256 169.884 20.004 169.884C21.2682 169.884 22.3975 170.136 23.3918 170.64C24.3861 171.144 25.1673 171.833 25.7355 172.707C26.3108 173.58 26.602 174.571 26.6091 175.679C26.602 176.837 26.286 177.87 25.661 178.779C25.0431 179.681 24.2227 180.267 23.2 180.537V180.665C23.9884 180.807 24.6986 181.144 25.3307 181.677C25.9628 182.202 26.4671 182.859 26.8435 183.648C27.2199 184.429 27.4117 185.281 27.4188 186.205C27.4117 187.384 27.0921 188.435 26.46 189.358C25.835 190.274 24.9649 190.995 23.8499 191.521C22.7419 192.039 21.46 192.298 20.004 192.298ZM20.004 189.955C20.9912 189.955 21.8435 189.795 22.5608 189.475C23.2781 189.156 23.8321 188.705 24.2227 188.122C24.6134 187.54 24.8122 186.858 24.8193 186.077C24.8122 185.253 24.5992 184.525 24.1801 183.893C23.7611 183.261 23.1894 182.763 22.4649 182.401C21.7476 182.039 20.9273 181.858 20.004 181.858C19.0736 181.858 18.2426 182.039 17.5111 182.401C16.7867 182.763 16.2149 183.261 15.7959 183.893C15.384 184.525 15.1816 185.253 15.1887 186.077C15.1816 186.858 15.3698 187.54 15.7533 188.122C16.1439 188.705 16.7014 189.156 17.4259 189.475C18.1503 189.795 19.0097 189.955 20.004 189.955ZM20.004 179.599C20.7852 179.599 21.4777 179.443 22.0814 179.131C22.6922 178.818 23.1716 178.381 23.5196 177.82C23.8676 177.259 24.0452 176.602 24.0523 175.849C24.0452 175.111 23.8712 174.468 23.5303 173.921C23.1894 173.367 22.7171 172.941 22.1134 172.643C21.5097 172.337 20.8066 172.185 20.004 172.185C19.1872 172.185 18.4735 172.337 17.8627 172.643C17.2519 172.941 16.7796 173.367 16.4458 173.921C16.1119 174.468 15.9486 175.111 15.9557 175.849C15.9486 176.602 16.1155 177.259 16.4564 177.82C16.8044 178.381 17.2838 178.818 17.8946 179.131C18.5054 179.443 19.2085 179.599 20.004 179.599Z" fill="#737370"/>
<path d="M382.956 170.182V192H380.314V172.952H380.186L374.86 176.489V173.804L380.314 170.182H382.956Z" fill="#737370"/>
<path d="M333.176 192V190.082L340.378 182.199C341.223 181.276 341.919 180.473 342.466 179.791C343.013 179.102 343.418 178.456 343.681 177.852C343.951 177.241 344.086 176.602 344.086 175.935C344.086 175.168 343.901 174.504 343.532 173.942C343.169 173.381 342.672 172.948 342.04 172.643C341.408 172.337 340.698 172.185 339.909 172.185C339.071 172.185 338.34 172.359 337.715 172.707C337.097 173.048 336.618 173.527 336.277 174.145C335.943 174.763 335.776 175.487 335.776 176.318H333.262C333.262 175.04 333.556 173.918 334.146 172.952C334.735 171.986 335.538 171.233 336.554 170.693C337.576 170.153 338.723 169.884 339.995 169.884C341.273 169.884 342.406 170.153 343.393 170.693C344.38 171.233 345.154 171.961 345.716 172.877C346.277 173.793 346.557 174.812 346.557 175.935C346.557 176.737 346.412 177.522 346.12 178.289C345.836 179.049 345.339 179.898 344.629 180.835C343.926 181.766 342.949 182.902 341.699 184.244L336.799 189.486V189.656H346.941V192H333.176Z" fill="#737370"/>
<path d="M294.371 192L304.13 172.696V172.526H292.88V170.182H306.857V172.653L297.141 192H294.371Z" fill="#737370"/>
<path d="M459.951 192.298C458.701 192.298 457.575 192.05 456.574 191.553C455.572 191.055 454.77 190.374 454.166 189.507C453.562 188.641 453.232 187.653 453.175 186.545H455.732C455.831 187.533 456.279 188.349 457.074 188.996C457.877 189.635 458.836 189.955 459.951 189.955C460.846 189.955 461.641 189.745 462.337 189.326C463.04 188.907 463.591 188.332 463.988 187.6C464.393 186.862 464.596 186.027 464.596 185.097C464.596 184.145 464.386 183.296 463.967 182.55C463.555 181.798 462.987 181.205 462.263 180.771C461.538 180.338 460.711 180.118 459.78 180.111C459.113 180.104 458.427 180.207 457.724 180.42C457.021 180.626 456.442 180.892 455.988 181.219L453.516 180.92L454.837 170.182H466.172V172.526H457.053L456.286 178.96H456.414C456.861 178.605 457.422 178.31 458.097 178.076C458.772 177.842 459.475 177.724 460.206 177.724C461.542 177.724 462.731 178.044 463.775 178.683C464.826 179.315 465.65 180.182 466.247 181.283C466.851 182.384 467.152 183.641 467.152 185.054C467.152 186.446 466.84 187.689 466.215 188.783C465.597 189.869 464.745 190.729 463.658 191.361C462.571 191.986 461.336 192.298 459.951 192.298Z" fill="#737370"/>
<path d="M502.956 170.182V192H500.314V172.952H500.186L494.86 176.489V173.804L500.314 170.182H502.956Z" fill="#737370"/>
<path d="M419.951 192.298C418.701 192.298 417.575 192.05 416.574 191.553C415.572 191.055 414.77 190.374 414.166 189.507C413.562 188.641 413.232 187.653 413.175 186.545H415.732C415.831 187.533 416.279 188.349 417.074 188.996C417.877 189.635 418.836 189.955 419.951 189.955C420.846 189.955 421.641 189.745 422.337 189.326C423.04 188.907 423.591 188.332 423.988 187.6C424.393 186.862 424.596 186.027 424.596 185.097C424.596 184.145 424.386 183.296 423.967 182.55C423.555 181.798 422.987 181.205 422.263 180.771C421.538 180.338 420.711 180.118 419.78 180.111C419.113 180.104 418.427 180.207 417.724 180.42C417.021 180.626 416.442 180.892 415.988 181.219L413.516 180.92L414.837 170.182H426.172V172.526H417.053L416.286 178.96H416.414C416.861 178.605 417.422 178.31 418.097 178.076C418.772 177.842 419.475 177.724 420.206 177.724C421.542 177.724 422.731 178.044 423.775 178.683C424.826 179.315 425.65 180.182 426.247 181.283C426.851 182.384 427.152 183.641 427.152 185.054C427.152 186.446 426.84 187.689 426.215 188.783C425.597 189.869 424.745 190.729 423.658 191.361C422.571 191.986 421.336 192.298 419.951 192.298Z" fill="#737370"/>
<path d="M260.004 192.298C258.541 192.298 257.248 192.039 256.126 191.521C255.011 190.995 254.141 190.274 253.516 189.358C252.891 188.435 252.582 187.384 252.589 186.205C252.582 185.281 252.763 184.429 253.133 183.648C253.502 182.859 254.006 182.202 254.645 181.677C255.292 181.144 256.013 180.807 256.808 180.665V180.537C255.764 180.267 254.933 179.681 254.315 178.779C253.697 177.87 253.392 176.837 253.399 175.679C253.392 174.571 253.672 173.58 254.241 172.707C254.809 171.833 255.59 171.144 256.584 170.64C257.586 170.136 258.726 169.884 260.004 169.884C261.268 169.884 262.397 170.136 263.392 170.64C264.386 171.144 265.167 171.833 265.736 172.707C266.311 173.58 266.602 174.571 266.609 175.679C266.602 176.837 266.286 177.87 265.661 178.779C265.043 179.681 264.223 180.267 263.2 180.537V180.665C263.988 180.807 264.699 181.144 265.331 181.677C265.963 182.202 266.467 182.859 266.843 183.648C267.22 184.429 267.412 185.281 267.419 186.205C267.412 187.384 267.092 188.435 266.46 189.358C265.835 190.274 264.965 190.995 263.85 191.521C262.742 192.039 261.46 192.298 260.004 192.298ZM260.004 189.955C260.991 189.955 261.843 189.795 262.561 189.475C263.278 189.156 263.832 188.705 264.223 188.122C264.613 187.54 264.812 186.858 264.819 186.077C264.812 185.253 264.599 184.525 264.18 183.893C263.761 183.261 263.189 182.763 262.465 182.401C261.748 182.039 260.927 181.858 260.004 181.858C259.074 181.858 258.243 182.039 257.511 182.401C256.787 182.763 256.215 183.261 255.796 183.893C255.384 184.525 255.182 185.253 255.189 186.077C255.182 186.858 255.37 187.54 255.753 188.122C256.144 188.705 256.701 189.156 257.426 189.475C258.15 189.795 259.01 189.955 260.004 189.955ZM260.004 179.599C260.785 179.599 261.478 179.443 262.081 179.131C262.692 178.818 263.172 178.381 263.52 177.82C263.868 177.259 264.045 176.602 264.052 175.849C264.045 175.111 263.871 174.468 263.53 173.921C263.189 173.367 262.717 172.941 262.113 172.643C261.51 172.337 260.807 172.185 260.004 172.185C259.187 172.185 258.473 172.337 257.863 172.643C257.252 172.941 256.78 173.367 256.446 173.921C256.112 174.468 255.949 175.111 255.956 175.849C255.949 176.602 256.116 177.259 256.456 177.82C256.804 178.381 257.284 178.818 257.895 179.131C258.505 179.443 259.209 179.599 260.004 179.599Z" fill="#737370"/>
<path d="M612.123 187.526V185.352L621.711 170.182H623.288V173.548H622.223L614.978 185.011V185.182H627.89V187.526H612.123ZM622.393 192V186.865V185.853V170.182H624.907V192H622.393Z" fill="#737370"/>
<path d="M219.844 169.884C220.739 169.891 221.634 170.061 222.529 170.395C223.424 170.729 224.241 171.283 224.979 172.057C225.718 172.824 226.311 173.871 226.758 175.2C227.206 176.528 227.429 178.193 227.429 180.196C227.429 182.135 227.245 183.857 226.875 185.363C226.513 186.862 225.988 188.126 225.299 189.156C224.617 190.185 223.786 190.967 222.806 191.499C221.833 192.032 220.732 192.298 219.503 192.298C218.282 192.298 217.191 192.057 216.233 191.574C215.281 191.084 214.5 190.406 213.889 189.539C213.285 188.665 212.898 187.653 212.728 186.503H215.327C215.562 187.504 216.027 188.332 216.723 188.985C217.426 189.631 218.353 189.955 219.503 189.955C221.187 189.955 222.515 189.219 223.488 187.749C224.468 186.279 224.958 184.202 224.958 181.517H224.787C224.39 182.114 223.917 182.629 223.37 183.062C222.824 183.495 222.216 183.829 221.549 184.063C220.881 184.298 220.171 184.415 219.418 184.415C218.168 184.415 217.021 184.106 215.977 183.488C214.94 182.863 214.109 182.007 213.484 180.92C212.866 179.827 212.557 178.577 212.557 177.17C212.557 175.835 212.856 174.614 213.452 173.506C214.056 172.391 214.901 171.503 215.988 170.842C217.081 170.182 218.367 169.862 219.844 169.884ZM219.844 172.227C218.949 172.227 218.143 172.451 217.426 172.898C216.716 173.339 216.151 173.935 215.732 174.688C215.32 175.434 215.114 176.261 215.114 177.17C215.114 178.08 215.313 178.907 215.711 179.653C216.116 180.391 216.666 180.981 217.362 181.421C218.065 181.854 218.864 182.071 219.759 182.071C220.434 182.071 221.062 181.94 221.645 181.677C222.227 181.407 222.735 181.041 223.168 180.58C223.608 180.111 223.953 179.582 224.201 178.992C224.45 178.396 224.574 177.774 224.574 177.128C224.574 176.276 224.368 175.477 223.956 174.731C223.552 173.985 222.991 173.381 222.273 172.92C221.563 172.458 220.753 172.227 219.844 172.227Z" fill="#737370"/>
<path d="M580 192.298C578.395 192.298 577.028 191.862 575.898 190.988C574.769 190.107 573.906 188.832 573.31 187.163C572.713 185.487 572.415 183.463 572.415 181.091C572.415 178.733 572.713 176.719 573.31 175.05C573.913 173.374 574.78 172.096 575.909 171.215C577.045 170.327 578.409 169.884 580 169.884C581.591 169.884 582.951 170.327 584.08 171.215C585.217 172.096 586.083 173.374 586.68 175.05C587.283 176.719 587.585 178.733 587.585 181.091C587.585 183.463 587.287 185.487 586.69 187.163C586.094 188.832 585.231 190.107 584.102 190.988C582.972 191.862 581.605 192.298 580 192.298ZM580 189.955C581.591 189.955 582.827 189.187 583.707 187.653C584.588 186.119 585.028 183.932 585.028 181.091C585.028 179.202 584.826 177.593 584.421 176.265C584.023 174.937 583.448 173.925 582.695 173.229C581.95 172.533 581.051 172.185 580 172.185C578.423 172.185 577.191 172.962 576.303 174.518C575.415 176.066 574.972 178.257 574.972 181.091C574.972 182.98 575.17 184.585 575.568 185.906C575.966 187.227 576.538 188.232 577.283 188.921C578.036 189.61 578.942 189.955 580 189.955Z" fill="#737370"/>
<path d="M539.844 169.884C540.739 169.891 541.634 170.061 542.529 170.395C543.424 170.729 544.241 171.283 544.979 172.057C545.718 172.824 546.311 173.871 546.758 175.2C547.206 176.528 547.429 178.193 547.429 180.196C547.429 182.135 547.245 183.857 546.875 185.363C546.513 186.862 545.988 188.126 545.299 189.156C544.617 190.185 543.786 190.967 542.806 191.499C541.833 192.032 540.732 192.298 539.503 192.298C538.282 192.298 537.191 192.057 536.233 191.574C535.281 191.084 534.5 190.406 533.889 189.539C533.285 188.665 532.898 187.653 532.728 186.503H535.327C535.562 187.504 536.027 188.332 536.723 188.985C537.426 189.631 538.353 189.955 539.503 189.955C541.187 189.955 542.515 189.219 543.488 187.749C544.468 186.279 544.958 184.202 544.958 181.517H544.787C544.39 182.114 543.917 182.629 543.37 183.062C542.824 183.495 542.216 183.829 541.549 184.063C540.881 184.298 540.171 184.415 539.418 184.415C538.168 184.415 537.021 184.106 535.977 183.488C534.94 182.863 534.109 182.007 533.484 180.92C532.866 179.827 532.557 178.577 532.557 177.17C532.557 175.835 532.856 174.614 533.452 173.506C534.056 172.391 534.901 171.503 535.988 170.842C537.081 170.182 538.367 169.862 539.844 169.884ZM539.844 172.227C538.949 172.227 538.143 172.451 537.426 172.898C536.716 173.339 536.151 173.935 535.732 174.688C535.32 175.434 535.114 176.261 535.114 177.17C535.114 178.08 535.313 178.907 535.711 179.653C536.116 180.391 536.666 180.981 537.362 181.421C538.065 181.854 538.864 182.071 539.759 182.071C540.434 182.071 541.062 181.94 541.645 181.677C542.227 181.407 542.735 181.041 543.168 180.58C543.608 180.111 543.953 179.582 544.201 178.992C544.45 178.396 544.574 177.774 544.574 177.128C544.574 176.276 544.368 175.477 543.956 174.731C543.552 173.985 542.991 173.381 542.273 172.92C541.563 172.458 540.753 172.227 539.844 172.227Z" fill="#737370"/>
<path d="M174.371 192L184.13 172.696V172.526H172.88V170.182H186.857V172.653L177.141 192H174.371Z" fill="#737370"/>
<path d="M134.371 192L144.13 172.696V172.526H132.88V170.182H146.857V172.653L137.141 192H134.371Z" fill="#737370"/>
<path d="M100.142 192.298C99.2476 192.284 98.3527 192.114 97.4578 191.787C96.5629 191.46 95.7462 190.91 95.0075 190.136C94.2689 189.354 93.6759 188.3 93.2284 186.972C92.781 185.636 92.5573 183.96 92.5573 181.943C92.5573 180.011 92.7384 178.3 93.1006 176.808C93.4628 175.31 93.9884 174.049 94.6773 173.026C95.3662 171.996 96.1972 171.215 97.1702 170.683C98.1503 170.15 99.2547 169.884 100.483 169.884C101.705 169.884 102.792 170.129 103.743 170.619C104.702 171.102 105.483 171.776 106.087 172.643C106.691 173.509 107.081 174.507 107.259 175.636H104.66C104.418 174.656 103.949 173.843 103.253 173.197C102.557 172.55 101.634 172.227 100.483 172.227C98.7931 172.227 97.4614 172.962 96.4884 174.433C95.5225 175.903 95.036 177.966 95.0289 180.622H95.1993C95.597 180.018 96.0693 179.504 96.6162 179.077C97.1702 178.644 97.781 178.31 98.4486 178.076C99.1162 177.842 99.8229 177.724 100.569 177.724C101.819 177.724 102.962 178.037 103.999 178.662C105.036 179.28 105.867 180.136 106.492 181.229C107.117 182.316 107.429 183.562 107.429 184.969C107.429 186.318 107.128 187.554 106.524 188.676C105.92 189.791 105.071 190.679 103.978 191.339C102.891 191.993 101.613 192.312 100.142 192.298ZM100.142 189.955C101.037 189.955 101.84 189.731 102.55 189.283C103.267 188.836 103.832 188.236 104.244 187.483C104.663 186.73 104.873 185.892 104.873 184.969C104.873 184.067 104.67 183.246 104.265 182.508C103.868 181.762 103.317 181.169 102.614 180.729C101.918 180.288 101.123 180.068 100.228 180.068C99.553 180.068 98.9244 180.203 98.3421 180.473C97.7597 180.736 97.2483 181.098 96.808 181.56C96.3747 182.021 96.0338 182.55 95.7852 183.147C95.5367 183.737 95.4124 184.358 95.4124 185.011C95.4124 185.878 95.6148 186.687 96.0196 187.44C96.4316 188.193 96.9926 188.8 97.7029 189.262C98.4202 189.724 99.2334 189.955 100.142 189.955Z" fill="#737370"/>
<path d="M62.9563 170.182V192H60.3143V172.952H60.1864L54.8597 176.489V173.804L60.3143 170.182H62.9563Z" fill="#737370"/>
<path d="M579.293 77.7071C579.683 78.0976 580.317 78.0976 580.707 77.7071L587.071 71.3431C587.462 70.9526 587.462 70.3195 587.071 69.9289C586.681 69.5384 586.047 69.5384 585.657 69.9289L580 75.5858L574.343 69.9289C573.953 69.5384 573.319 69.5384 572.929 69.9289C572.538 70.3195 572.538 70.9526 572.929 71.3431L579.293 77.7071ZM579 47V77H581V47H579Z" fill="#82D1F5"/>
<path d="M19.2929 77.7071C19.6834 78.0976 20.3166 78.0976 20.7071 77.7071L27.0711 71.3431C27.4616 70.9526 27.4616 70.3195 27.0711 69.9289C26.6805 69.5384 26.0474 69.5384 25.6569 69.9289L20 75.5858L14.3431 69.9289C13.9526 69.5384 13.3195 69.5384 12.9289 69.9289C12.5384 70.3195 12.5384 70.9526 12.9289 71.3431L19.2929 77.7071ZM19 47L19 77H21V47H19Z" fill="#82D1F5"/>
<path d="M99.2929 77.7071C99.6834 78.0976 100.317 78.0976 100.707 77.7071L107.071 71.3431C107.462 70.9526 107.462 70.3195 107.071 69.9289C106.681 69.5384 106.047 69.5384 105.657 69.9289L100 75.5858L94.3431 69.9289C93.9526 69.5384 93.3195 69.5384 92.9289 69.9289C92.5384 70.3195 92.5384 70.9526 92.9289 71.3431L99.2929 77.7071ZM99 47V77H101V47H99Z" fill="#82D1F5"/>
<path d="M179.293 77.7071C179.683 78.0976 180.317 78.0976 180.707 77.7071L187.071 71.3431C187.462 70.9526 187.462 70.3195 187.071 69.9289C186.681 69.5384 186.047 69.5384 185.657 69.9289L180 75.5858L174.343 69.9289C173.953 69.5384 173.319 69.5384 172.929 69.9289C172.538 70.3195 172.538 70.9526 172.929 71.3431L179.293 77.7071ZM179 47V77H181V47H179Z" fill="#82D1F5"/>
<path d="M259.293 77.7071C259.683 78.0976 260.317 78.0976 260.707 77.7071L267.071 71.3431C267.462 70.9526 267.462 70.3195 267.071 69.9289C266.681 69.5384 266.047 69.5384 265.657 69.9289L260 75.5858L254.343 69.9289C253.953 69.5384 253.319 69.5384 252.929 69.9289C252.538 70.3195 252.538 70.9526 252.929 71.3431L259.293 77.7071ZM259 47V77H261V47H259Z" fill="#82D1F5"/>
<path d="M339.293 77.7071C339.683 78.0976 340.317 78.0976 340.707 77.7071L347.071 71.3431C347.462 70.9526 347.462 70.3195 347.071 69.9289C346.681 69.5384 346.047 69.5384 345.657 69.9289L340 75.5858L334.343 69.9289C333.953 69.5384 333.319 69.5384 332.929 69.9289C332.538 70.3195 332.538 70.9526 332.929 71.3431L339.293 77.7071ZM339 47V77H341V47H339Z" fill="#82D1F5"/>
<path d="M419.293 77.7071C419.683 78.0976 420.317 78.0976 420.707 77.7071L427.071 71.3431C427.462 70.9526 427.462 70.3195 427.071 69.9289C426.681 69.5384 426.047 69.5384 425.657 69.9289L420 75.5858L414.343 69.9289C413.953 69.5384 413.319 69.5384 412.929 69.9289C412.538 70.3195 412.538 70.9526 412.929 71.3431L419.293 77.7071ZM419 47V77H421V47H419Z" fill="#82D1F5"/>
<path d="M499.293 77.7071C499.683 78.0976 500.317 78.0976 500.707 77.7071L507.071 71.3431C507.462 70.9526 507.462 70.3195 507.071 69.9289C506.681 69.5384 506.047 69.5384 505.657 69.9289L500 75.5858L494.343 69.9289C493.953 69.5384 493.319 69.5384 492.929 69.9289C492.538 70.3195 492.538 70.9526 492.929 71.3431L499.293 77.7071ZM499 47V77H501V47H499Z" fill="#82D1F5"/>
<path d="M179.293 157.707C179.683 158.098 180.317 158.098 180.707 157.707L187.071 151.343C187.462 150.953 187.462 150.319 187.071 149.929C186.681 149.538 186.047 149.538 185.657 149.929L180 155.586L174.343 149.929C173.953 149.538 173.319 149.538 172.929 149.929C172.538 150.319 172.538 150.953 172.929 151.343L179.293 157.707ZM179 127V157H181V127H179Z" fill="#82D1F5"/>
<path d="M419.293 157.707C419.683 158.098 420.317 158.098 420.707 157.707L427.071 151.343C427.462 150.953 427.462 150.319 427.071 149.929C426.681 149.538 426.047 149.538 425.657 149.929L420 155.586L414.343 149.929C413.953 149.538 413.319 149.538 412.929 149.929C412.538 150.319 412.538 150.953 412.929 151.343L419.293 157.707ZM419 127V157H421V127H419Z" fill="#82D1F5"/>
<path d="M499.293 157.707C499.683 158.098 500.317 158.098 500.707 157.707L507.071 151.343C507.462 150.953 507.462 150.319 507.071 149.929C506.681 149.538 506.047 149.538 505.657 149.929L500 155.586L494.343 149.929C493.953 149.538 493.319 149.538 492.929 149.929C492.538 150.319 492.538 150.953 492.929 151.343L499.293 157.707ZM499 127V157H501V127H499Z" fill="#82D1F5"/>
<path d="M171.538 275.298C170.075 275.298 168.782 275.039 167.66 274.521C166.545 273.995 165.675 273.274 165.05 272.358C164.425 271.435 164.116 270.384 164.123 269.205C164.116 268.281 164.297 267.429 164.667 266.648C165.036 265.859 165.54 265.202 166.18 264.677C166.826 264.144 167.547 263.807 168.342 263.665V263.537C167.298 263.267 166.467 262.681 165.849 261.779C165.231 260.87 164.926 259.837 164.933 258.679C164.926 257.571 165.206 256.58 165.775 255.707C166.343 254.833 167.124 254.144 168.118 253.64C169.12 253.136 170.26 252.884 171.538 252.884C172.802 252.884 173.932 253.136 174.926 253.64C175.92 254.144 176.702 254.833 177.27 255.707C177.845 256.58 178.136 257.571 178.143 258.679C178.136 259.837 177.82 260.87 177.195 261.779C176.577 262.681 175.757 263.267 174.734 263.537V263.665C175.523 263.807 176.233 264.144 176.865 264.677C177.497 265.202 178.001 265.859 178.378 266.648C178.754 267.429 178.946 268.281 178.953 269.205C178.946 270.384 178.626 271.435 177.994 272.358C177.369 273.274 176.499 273.995 175.384 274.521C174.276 275.039 172.994 275.298 171.538 275.298ZM171.538 272.955C172.525 272.955 173.378 272.795 174.095 272.475C174.812 272.156 175.366 271.705 175.757 271.122C176.148 270.54 176.346 269.858 176.354 269.077C176.346 268.253 176.133 267.525 175.714 266.893C175.295 266.261 174.724 265.763 173.999 265.401C173.282 265.039 172.461 264.858 171.538 264.858C170.608 264.858 169.777 265.039 169.045 265.401C168.321 265.763 167.749 266.261 167.33 266.893C166.918 267.525 166.716 268.253 166.723 269.077C166.716 269.858 166.904 270.54 167.287 271.122C167.678 271.705 168.236 272.156 168.96 272.475C169.684 272.795 170.544 272.955 171.538 272.955ZM171.538 262.599C172.319 262.599 173.012 262.443 173.616 262.131C174.226 261.818 174.706 261.381 175.054 260.82C175.402 260.259 175.579 259.602 175.586 258.849C175.579 258.111 175.405 257.468 175.064 256.921C174.724 256.367 174.251 255.941 173.648 255.643C173.044 255.337 172.341 255.185 171.538 255.185C170.721 255.185 170.008 255.337 169.397 255.643C168.786 255.941 168.314 256.367 167.98 256.921C167.646 257.468 167.483 258.111 167.49 258.849C167.483 259.602 167.65 260.259 167.991 260.82C168.339 261.381 168.818 261.818 169.429 262.131C170.04 262.443 170.743 262.599 171.538 262.599ZM190.152 275.298C188.547 275.298 187.18 274.862 186.051 273.988C184.922 273.107 184.059 271.832 183.462 270.163C182.865 268.487 182.567 266.463 182.567 264.091C182.567 261.733 182.865 259.719 183.462 258.05C184.066 256.374 184.932 255.096 186.061 254.215C187.198 253.327 188.561 252.884 190.152 252.884C191.743 252.884 193.103 253.327 194.233 254.215C195.369 255.096 196.235 256.374 196.832 258.05C197.436 259.719 197.738 261.733 197.738 264.091C197.738 266.463 197.439 268.487 196.843 270.163C196.246 271.832 195.383 273.107 194.254 273.988C193.125 274.862 191.757 275.298 190.152 275.298ZM190.152 272.955C191.743 272.955 192.979 272.187 193.86 270.653C194.74 269.119 195.181 266.932 195.181 264.091C195.181 262.202 194.978 260.593 194.574 259.265C194.176 257.937 193.6 256.925 192.848 256.229C192.102 255.533 191.203 255.185 190.152 255.185C188.576 255.185 187.343 255.962 186.456 257.518C185.568 259.066 185.124 261.257 185.124 264.091C185.124 265.98 185.323 267.585 185.721 268.906C186.118 270.227 186.69 271.232 187.436 271.921C188.189 272.61 189.094 272.955 190.152 272.955ZM221.346 270.909V269.759C221.346 268.963 221.509 268.235 221.836 267.575C222.169 266.907 222.652 266.374 223.284 265.977C223.924 265.572 224.698 265.369 225.607 265.369C226.53 265.369 227.304 265.572 227.929 265.977C228.554 266.374 229.027 266.907 229.346 267.575C229.666 268.235 229.826 268.963 229.826 269.759V270.909C229.826 271.705 229.662 272.436 229.336 273.104C229.016 273.764 228.54 274.297 227.908 274.702C227.283 275.099 226.516 275.298 225.607 275.298C224.684 275.298 223.906 275.099 223.274 274.702C222.642 274.297 222.162 273.764 221.836 273.104C221.509 272.436 221.346 271.705 221.346 270.909ZM223.519 269.759V270.909C223.519 271.57 223.675 272.163 223.988 272.688C224.3 273.207 224.84 273.466 225.607 273.466C226.353 273.466 226.878 273.207 227.184 272.688C227.496 272.163 227.652 271.57 227.652 270.909V269.759C227.652 269.098 227.503 268.509 227.205 267.99C226.907 267.464 226.374 267.202 225.607 267.202C224.861 267.202 224.325 267.464 223.998 267.99C223.679 268.509 223.519 269.098 223.519 269.759ZM210.479 258.423V257.273C210.479 256.477 210.642 255.749 210.969 255.089C211.303 254.421 211.786 253.888 212.418 253.491C213.057 253.086 213.831 252.884 214.74 252.884C215.664 252.884 216.438 253.086 217.063 253.491C217.688 253.888 218.16 254.421 218.48 255.089C218.799 255.749 218.959 256.477 218.959 257.273V258.423C218.959 259.219 218.796 259.95 218.469 260.618C218.15 261.278 217.674 261.811 217.042 262.216C216.417 262.614 215.65 262.812 214.74 262.812C213.817 262.812 213.039 262.614 212.407 262.216C211.775 261.811 211.296 261.278 210.969 260.618C210.642 259.95 210.479 259.219 210.479 258.423ZM212.652 257.273V258.423C212.652 259.084 212.809 259.677 213.121 260.202C213.434 260.721 213.973 260.98 214.74 260.98C215.486 260.98 216.012 260.721 216.317 260.202C216.63 259.677 216.786 259.084 216.786 258.423V257.273C216.786 256.612 216.637 256.023 216.338 255.504C216.04 254.979 215.507 254.716 214.74 254.716C213.995 254.716 213.458 254.979 213.132 255.504C212.812 256.023 212.652 256.612 212.652 257.273ZM211.289 275L226.289 253.182H228.718L213.718 275H211.289ZM250.706 253.182V275H248.064V255.952H247.936L242.61 259.489V256.804L248.064 253.182H250.706ZM264.098 275.298C262.493 275.298 261.125 274.862 259.996 273.988C258.867 273.107 258.004 271.832 257.407 270.163C256.811 268.487 256.512 266.463 256.512 264.091C256.512 261.733 256.811 259.719 257.407 258.05C258.011 256.374 258.877 255.096 260.007 254.215C261.143 253.327 262.507 252.884 264.098 252.884C265.689 252.884 267.049 253.327 268.178 254.215C269.314 255.096 270.181 256.374 270.777 258.05C271.381 259.719 271.683 261.733 271.683 264.091C271.683 266.463 271.385 268.487 270.788 270.163C270.191 271.832 269.328 273.107 268.199 273.988C267.07 274.862 265.703 275.298 264.098 275.298ZM264.098 272.955C265.689 272.955 266.924 272.187 267.805 270.653C268.686 269.119 269.126 266.932 269.126 264.091C269.126 262.202 268.924 260.593 268.519 259.265C268.121 257.937 267.546 256.925 266.793 256.229C266.047 255.533 265.149 255.185 264.098 255.185C262.521 255.185 261.289 255.962 260.401 257.518C259.513 259.066 259.069 261.257 259.069 264.091C259.069 265.98 259.268 267.585 259.666 268.906C260.064 270.227 260.635 271.232 261.381 271.921C262.134 272.61 263.039 272.955 264.098 272.955ZM285.234 262.088V259.787H298.359V262.088H285.234ZM285.234 268.395V266.094H298.359V268.395H285.234ZM305.009 262.088V259.787H318.134V262.088H305.009ZM305.009 268.395V266.094H318.134V268.395H305.009ZM339.273 275.298C337.668 275.298 336.301 274.862 335.172 273.988C334.043 273.107 333.18 271.832 332.583 270.163C331.987 268.487 331.688 266.463 331.688 264.091C331.688 261.733 331.987 259.719 332.583 258.05C333.187 256.374 334.053 255.096 335.183 254.215C336.319 253.327 337.683 252.884 339.273 252.884C340.864 252.884 342.224 253.327 343.354 254.215C344.49 255.096 345.357 256.374 345.953 258.05C346.557 259.719 346.859 261.733 346.859 264.091C346.859 266.463 346.56 268.487 345.964 270.163C345.367 271.832 344.504 273.107 343.375 273.988C342.246 274.862 340.879 275.298 339.273 275.298ZM339.273 272.955C340.864 272.955 342.1 272.187 342.981 270.653C343.862 269.119 344.302 266.932 344.302 264.091C344.302 262.202 344.099 260.593 343.695 259.265C343.297 257.937 342.722 256.925 341.969 256.229C341.223 255.533 340.325 255.185 339.273 255.185C337.697 255.185 336.464 255.962 335.577 257.518C334.689 259.066 334.245 261.257 334.245 264.091C334.245 265.98 334.444 267.585 334.842 268.906C335.239 270.227 335.811 271.232 336.557 271.921C337.31 272.61 338.215 272.955 339.273 272.955ZM373.215 273.636L371.575 272.017L379.501 264.091L371.575 256.186L373.215 254.545L382.761 264.091L373.215 273.636ZM360.836 267.798V265.455H379.82L377.477 267.798H360.836ZM360.836 262.727V260.384H377.477L379.82 262.727H360.836Z" fill="#737370"/>
<path d="M390.962 258.985V255.182H408.881V258.985H402.201V277H397.642V258.985H390.962ZM410.047 277V260.636H414.447V263.491H414.618C414.916 262.476 415.417 261.709 416.12 261.19C416.823 260.665 417.633 260.402 418.549 260.402C418.776 260.402 419.021 260.416 419.284 260.445C419.547 260.473 419.778 260.512 419.976 260.562V264.589C419.763 264.525 419.469 264.468 419.092 264.418C418.716 264.369 418.371 264.344 418.059 264.344C417.391 264.344 416.795 264.489 416.269 264.781C415.751 265.065 415.339 265.462 415.033 265.974C414.735 266.485 414.586 267.075 414.586 267.742V277H410.047ZM432.816 270.033V260.636H437.355V277H432.998V274.028H432.827C432.458 274.987 431.843 275.757 430.984 276.339C430.132 276.922 429.091 277.213 427.863 277.213C426.769 277.213 425.806 276.964 424.975 276.467C424.145 275.97 423.495 275.263 423.026 274.347C422.564 273.431 422.33 272.334 422.323 271.055V260.636H426.861V270.246C426.868 271.212 427.127 271.975 427.639 272.536C428.15 273.097 428.836 273.378 429.695 273.378C430.242 273.378 430.753 273.254 431.229 273.005C431.705 272.749 432.088 272.373 432.38 271.876C432.678 271.379 432.824 270.764 432.816 270.033ZM448.442 277.32C446.759 277.32 445.31 276.979 444.096 276.297C442.888 275.608 441.958 274.635 441.305 273.378C440.651 272.114 440.324 270.619 440.324 268.893C440.324 267.21 440.651 265.732 441.305 264.461C441.958 263.19 442.878 262.199 444.064 261.489C445.257 260.778 446.656 260.423 448.261 260.423C449.341 260.423 450.346 260.597 451.276 260.945C452.214 261.286 453.03 261.801 453.726 262.49C454.43 263.179 454.976 264.045 455.367 265.089C455.758 266.126 455.953 267.341 455.953 268.733V269.979H442.135V267.167H451.681C451.681 266.513 451.539 265.935 451.255 265.43C450.971 264.926 450.577 264.532 450.072 264.248C449.575 263.957 448.996 263.811 448.336 263.811C447.647 263.811 447.036 263.971 446.503 264.29C445.978 264.603 445.566 265.026 445.268 265.558C444.969 266.084 444.817 266.67 444.809 267.316V269.99C444.809 270.8 444.959 271.499 445.257 272.089C445.562 272.678 445.992 273.133 446.546 273.452C447.1 273.772 447.757 273.932 448.517 273.932C449.021 273.932 449.483 273.861 449.902 273.719C450.321 273.577 450.68 273.364 450.978 273.08C451.276 272.795 451.503 272.447 451.66 272.036L455.857 272.312C455.644 273.321 455.207 274.202 454.547 274.955C453.893 275.7 453.048 276.283 452.011 276.702C450.981 277.114 449.792 277.32 448.442 277.32Z" fill="#FA8F00"/>
</svg>
